<?xml version="1.0" encoding="UTF-8" standalone="no"?>
<svg width="221px" height="226px" viewBox="0 0 221 226" version="1.1" xmlns="http://www.w3.org/2000/svg" xmlns:xlink="http://www.w3.org/1999/xlink">
    <!-- Generator: Sketch 45.1 (43504) - http://www.bohemiancoding.com/sketch -->
    <title>Contact illu</title>
    <desc>Created with Sketch.</desc>
    <defs>
        <path d="M52.0600276,34.0365767 L52,34.0365767 L52,199.225796 L170.218356,199.225796 L170.218356,34.0365767 L170.158328,34.0365767 C168.753122,15.5548211 142.85345,0.824942066 111.109178,0.824942066 C79.3649057,0.824942066 53.4652331,15.5548211 52.0600276,34.0365767 Z" id="path-1"></path>
        <rect id="path-2" x="69" y="30" width="85.1565254" height="26.9077048"></rect>
        <rect id="path-3" x="69" y="63" width="85.1565254" height="109.977372"></rect>
        <rect id="path-4" x="46" y="186" width="130.396794" height="13.2829468" rx="5"></rect>
    </defs>
    <g id="Page-1" stroke="none" stroke-width="1" fill="none" fill-rule="evenodd">
        <g id="Artboard" transform="translate(-1138.000000, -472.000000)">
            <g id="Contact-illu" transform="translate(1138.000000, 472.000000)">
                <circle id="Oval" fill="#EAEAEA" cx="110" cy="116" r="110"></circle>
                <g id="booth">
                    <use fill="#E15E5E" fill-rule="evenodd" xlink:href="#path-1"></use>
                    <path stroke="#454855" stroke-width="4" d="M54,34.9020029 L54,197.225796 L168.218356,197.225796 L168.218356,34.9020029 L168.164084,34.1882032 C166.852789,16.9415953 141.839122,2.82494207 111.109178,2.82494207 C80.3792336,2.82494207 55.3655664,16.9415953 54.0542717,34.1882032 L54,34.9020029 Z"></path>
                </g>
                <g id="Rectangle-2">
                    <use fill="#EEF4FB" fill-rule="evenodd" xlink:href="#path-2"></use>
                    <rect stroke="#454855" stroke-width="3" x="70.5" y="31.5" width="82.1565254" height="23.9077048"></rect>
                </g>
                <g id="door">
                    <use fill="#DEE8F4" fill-rule="evenodd" xlink:href="#path-3"></use>
                    <rect stroke="#454855" stroke-width="3" x="70.5" y="64.5" width="82.1565254" height="106.977372"></rect>
                </g>
                <rect id="Rectangle-3" fill="#E15E5E" x="64" y="83" width="97" height="4"></rect>
                <rect id="Rectangle-3-Copy-2" fill="#E15E5E" x="64" y="149" width="97" height="4"></rect>
                <rect id="Rectangle-3-Copy" fill="#E15E5E" x="64" y="105" width="97" height="4"></rect>
                <rect id="Rectangle-3-Copy" fill="#E15E5E" x="64" y="127" width="97" height="4"></rect>
                <g id="step">
                    <use fill="#818181" fill-rule="evenodd" xlink:href="#path-4"></use>
                    <rect stroke="#454855" stroke-width="4" x="48" y="188" width="126.396794" height="9.28294676" rx="4.64147338"></rect>
                </g>
                <g id="Lines" transform="translate(1.000000, 195.000000)" fill="#454855">
                    <rect id="Rectangle" x="0" y="0" width="189" height="4.28294676" rx="2.14147338"></rect>
                    <rect id="Rectangle-Copy-2" x="194.829774" y="0" width="25.1702257" height="4.28294676" rx="2.14147338"></rect>
                </g>
                <text id="CONTACT" font-family="Roboto-Black, Roboto" font-size="10" font-weight="700" letter-spacing="1" fill="#454855">
                    <tspan x="86.2617188" y="47">CONTACT</tspan>
                </text>
                <circle id="Oval-3" fill="#E5E68A" cx="112" cy="17" r="4"></circle>
            </g>
        </g>
    </g>
</svg>